<?xml version="1.0" encoding="utf-8"?>
<!-- Generator: Adobe Illustrator 19.2.1, SVG Export Plug-In . SVG Version: 6.00 Build 0)  -->
<svg version="1.1" id="layer" xmlns="http://www.w3.org/2000/svg" xmlns:xlink="http://www.w3.org/1999/xlink" x="0px" y="0px"
	 viewBox="0 0 652 652" style="enable-background:new 0 0 652 652;" xml:space="preserve">
<style type="text/css">
	.st0{fill:#F4A000;}
	.st1{fill-rule:evenodd;clip-rule:evenodd;fill:#231815;}
	.st2{fill:#009EA7;}
</style>
<g>
	<path class="st0" d="M26.8,319.3c0-70.2,56.8-127,126.9-127c70.2,0,127,56.8,127,127c0,4.3-0.1,8.7-0.6,13
		c-14.4,56.3-65.5,98-126.4,98c-60.8,0-111.8-41.7-126.2-98C26.9,328,26.8,323.7,26.8,319.3"/>
	<path class="st1" d="M143.1,351.9l-6-6c-12-3.7-24.7-5.7-37.8-6l42.6,42.5L143.1,351.9 M112.9,321.7l-27-27
		c-7.5-0.9-15-1.4-22.8-1.4c-14.3,0-28.2,1.5-41.4,4.7c0.4-2.5,0.9-5.1,1.4-7.5c21.9-11.3,46.4-18.3,72.4-20l6.7,6.9l9.2,9.1
		c19.5-9.3,41.3-14.5,64.3-14.5c-1.3-1.6-2.5-3.4-3.8-5.1c-4.3-0.2-8.7-0.5-13.1-0.5c-15,0-29.6,2.2-43.2,6.4l-8.3-8.3
		c-5.7-0.5-11.6-0.9-17.6-0.9c-21.4-0.4-42.2,2.9-61.5,9.4c1-2.7,2.1-5.1,3.1-7.7c15.4-11.2,32.5-20,50.8-26l-3.8-3.9
		c22.5-11.6,48.3-18,75.4-18c16.2,0,31.7,2.2,46.5,6.5c5.4,5.3,10.5,11.1,15.2,17.1c1.5-1.2,3.2-2.2,5-3.3
		c20.2,6,39.1,15.4,55.9,27.6c1,2.6,2.1,5,3.1,7.7c-15.6-5.2-32-8.4-48.9-9.3c1.8,3.3,3.6,6.5,5.1,9.9c17.3,3.3,33.8,9,48.9,16.9
		c0.5,2.4,1,5,1.4,7.5c-13.4-3.2-27.1-4.7-41.4-4.7h-0.8c1.1,3.2,2.2,6.4,3.2,9.7c14.1,2.4,27.8,6.5,40.5,12
		c0.1,1.4,0.1,2.7,0.1,4.1v1.3c-6.6-0.8-13.4-1.1-20.3-1.1c-13.3,0-26.1,1.4-38.6,4.1c-4.1-2.7-8.3-5.3-12.6-7.8l-25.2,25.3
		l-25.5,25.5l2.4,62.7c-4.6,0.5-9.2,0.8-14,0.8c-4.6,0-9.3-0.3-13.7-0.8l1.1-26.5l0.4-10.1L88.9,340l-1,0.1
		c-9.5,0.5-18.9,1.9-27.8,4.1c-1-2-1.9-4.1-2.7-6.2c6.5-3.4,13.4-6.5,20.5-8.9l-7.3-7.3c-2.3-0.4-4.6-0.8-6.9-1
		c-2.5-0.4-5.2-0.6-7.8-0.9c-5.2-0.4-10.4-0.6-15.8-0.6c-6.9,0-13.6,0.4-20.3,1.1v-1.3c0-1.4,0-2.7,0.1-4.1
		c18.4-7.9,38.4-12.7,59.4-14.1l22.3,22.3C105.5,322.5,109.2,322,112.9,321.7 M170.5,301.4l24.7,24.6l14-14
		c-12.5-6.1-26.1-10.3-40.4-12.2L170.5,301.4z M190,331.2L153.8,295l-1.9-1.8c-14.4,3.3-28,9.2-40.3,16.8l11.6,11.6
		c5.5-0.5,11.1-0.3,16.4,0.2c2,6.6,3.4,13.4,4.5,20.4l17.2,17.4L190,331.2z"/>
	<path class="st2" d="M27.8,331.8c14.3,56.3,65.2,98,125.9,98c60.8,0,111.7-41.7,126-98c2.5-0.4,5.1-0.6,7.5-0.9
		c-5.9,68.5-63.3,122.3-133.5,122.3c-70.1,0-127.5-53.8-133.4-122.3C22.7,331.2,25.3,331.4,27.8,331.8"/>
	<path class="st2" d="M590,320.6c0-5.7-4.1-9.3-11-9.3h-15.4v18.6H579C586,329.9,590,326.3,590,320.6 M597.9,357.9
		c0-6.4-5-11.1-13.5-11.1h-20.9v22.4h20.9C593,369.2,597.9,364.7,597.9,357.9 M612.1,317.8c0,7.1-3.1,13.6-9.3,18l-1.7,1.2l2,0.8
		c11.5,4.1,16.9,13,16.9,23c0,14.1-11.2,26-34.5,26h-43.4v-93h38C602,293.8,612.1,304.8,612.1,317.8 M375,386.8h-22.4v-69
		c0-13,10.1-24,32-24h44.1l-0.1,17.5h-43c-5.8,0-9.5,2.4-10.7,6.5V331h49.1v19.4H375V386.8z M522.6,386.8c-5.8,0-11.1-2.4-15-6.1
		l-29.1-29L464,337.1c-3.8-3.7-6.7-7.7-6.7-7.7l-1,0.3v57.1h-20.7v-93h6.9c5.8,0,11.1,2.4,15,6.2l29,29l14.6,14.6
		c3.7,3.7,6.8,7.7,6.8,7.7l0.8-0.2l0.2-57.2h20.7v93H522.6z"/>
</g>
</svg>
